HIERARCHY
ROOT Hips
{
	OFFSET 0.000000 0.000000 0.000000
	CHANNELS 6 Xposition Yposition Zposition Zrotation Yrotation Xrotation 
	JOINT LHipJoint
	{
		OFFSET 0.000000 0.000000 0.000000
		CHANNELS 3 Zrotation Yrotation Xrotation
		JOINT LeftUpLeg
		{
			OFFSET 1.363060 -1.794630 0.839290
			CHANNELS 3 Zrotation Yrotation Xrotation
			JOINT LeftLeg
			{
				OFFSET 2.448110 -6.726130 0.000000
				CHANNELS 3 Zrotation Yrotation Xrotation
				JOINT LeftFoot
				{
					OFFSET 2.562200 -7.039590 0.000000
					CHANNELS 3 Zrotation Yrotation Xrotation
					JOINT LeftToeBase
					{
						OFFSET 0.157640 -0.433110 2.322550
						CHANNELS 3 Zrotation Yrotation Xrotation
						End Site
						{
							OFFSET 0.000000 0.000000 0.000000
						}
					}
				}
			}
		}
	}
	JOINT RHipJoint
	{
		OFFSET 0.000000 0.000000 0.000000
		CHANNELS 3 Zrotation Yrotation Xrotation
		JOINT RightUpLeg
		{
			OFFSET -1.305520 -1.794630 0.839290
			CHANNELS 3 Zrotation Yrotation Xrotation
			JOINT RightLeg
			{
				OFFSET -2.542530 -6.985550 0.000000
				CHANNELS 3 Zrotation Yrotation Xrotation
				JOINT RightFoot
				{
					OFFSET -2.568260 -7.056230 0.000000
					CHANNELS 3 Zrotation Yrotation Xrotation
					JOINT RightToeBase
					{
						OFFSET -0.164730 -0.452590 2.363150
						CHANNELS 3 Zrotation Yrotation Xrotation
						End Site
						{
							OFFSET 0.000000 0.000000 0.000000
						}
					}
				}
			}
		}
	}
}
MOTION
Frames: 11
Frame Time: 0.008333
-10.632670 17.069631 -1.577249 8.754108 83.295077 9.184472 -10.309323 1.817355 3.145776 -13.809184 2.395964 -22.675998 -2.107004 0.274860 18.447396 1.156397 6.797675 -4.454028 0.456400 0.000001 -15.717400 10.429427 -3.972899 -1.697965 -1.070811 -17.350218 2.672956 -0.501207 -2.937420 39.372218 -0.840382 0.921216 20.610623 0.771400 0.000000 -85.393500
-10.458622 17.062288 -1.573943 11.668485 83.440068 11.952558 -10.310922 1.841647 3.050796 -14.193454 2.641488 -22.345490 -2.112497 0.327269 19.408121 1.147568 6.702377 -4.851230 0.385800 0.000001 -15.259499 10.578185 -3.911525 -1.753421 -1.693924 -17.823696 1.431229 -0.666277 -3.026309 41.922968 -1.109307 -0.583407 21.823674 0.181000 0.000001 -82.291000
-10.287318 17.054387 -1.570974 14.259131 83.568748 14.419260 -10.299150 1.870213 2.945135 -14.550649 2.967718 -22.016366 -2.123301 0.372288 20.305141 1.133486 6.553150 -5.301194 0.306700 0.000000 -14.947800 10.718490 -3.836965 -1.800816 -2.173234 -18.200406 0.176094 -0.800865 -3.111765 44.355044 -1.378781 -2.461205 22.405493 -0.647500 0.000000 -78.403500
-10.118596 17.046401 -1.568315 16.553585 83.663278 16.611561 -10.274633 1.903095 2.835311 -14.882231 3.331826 -21.656938 -2.138918 0.407984 21.096717 1.118569 6.381465 -5.792711 0.223700 0.000000 -14.780200 10.849685 -3.751570 -1.841327 -2.527187 -18.473061 -1.092309 -0.911370 -3.199613 46.642689 -1.638927 -4.596431 22.295945 -1.620100 0.000000 -74.022800
-9.952053 17.038824 -1.566502 18.397806 83.712496 18.377296 -10.243812 1.942249 2.728700 -15.169211 3.705831 -21.260055 -2.158319 0.435521 21.769216 1.105126 6.200449 -6.323538 0.138500 0.000001 -14.752900 10.964721 -3.657065 -1.873734 -2.745409 -18.634439 -2.367513 -1.003889 -3.289822 48.747588 -1.880917 -6.842466 21.478742 -2.607999 0.000000 -69.394900
-9.787319 17.032232 -1.565745 19.766743 83.709858 19.691894 -10.211514 1.986658 2.630733 -15.408616 4.060402 -20.814721 -2.180611 0.454577 22.305225 1.096335 6.033612 -6.884109 0.053300 0.000000 -14.857399 11.059619 -3.555810 -1.895947 -2.834841 -18.679428 -3.648099 -1.081000 -3.380866 50.639122 -2.098320 -9.040436 19.988375 -3.472800 0.000000 -64.702800
-9.623930 17.027149 -1.566371 20.607226 83.657545 20.504312 -10.184234 2.035460 2.546145 -15.591768 4.377295 -20.324790 -2.204433 0.465981 22.705800 1.093880 5.893708 -7.467717 -0.031100 -0.000000 -15.078300 11.129054 -3.450366 -1.905414 -2.794476 -18.611413 -4.932264 -1.141695 -3.468165 52.288210 -2.285014 -11.040160 17.896824 -4.095400 -0.000000 -60.018400
-9.461632 17.024063 -1.568342 20.995563 83.558436 20.889725 -10.162973 2.086325 2.476650 -15.726215 4.639833 -19.785320 -2.228589 0.469091 22.964833 1.100073 5.801608 -8.059606 -0.113700 -0.000001 -15.397700 11.173672 -3.342842 -1.899830 -2.642402 -18.435492 -6.217527 -1.181391 -3.547703 53.674341 -2.435970 -12.718873 15.306526 -4.398200 -0.000000 -55.359600
-9.300212 17.023405 -1.571553 21.003808 83.420306 20.917573 -10.148173 2.137789 2.422567 -15.816926 4.841683 -19.196884 -2.251687 0.464093 23.086192 1.115905 5.769020 -8.645381 -0.194100 0.000000 -15.793000 11.194561 -3.234529 -1.877725 -2.394986 -18.163967 -7.497254 -1.193863 -3.614719 54.780091 -2.546665 -13.991340 12.342291 -4.357800 0.000000 -50.723500
-9.139544 17.025358 -1.575816 20.732262 83.253688 20.683205 -10.138470 2.188609 2.382076 -15.871949 4.983759 -18.559105 -2.272532 0.451363 23.076742 1.141446 5.801837 -9.209453 -0.272500 -0.000000 -16.238900 11.194623 -3.125843 -1.839483 -2.074142 -17.815812 -8.761524 -1.172610 -3.665481 55.594492 -2.613416 -14.810172 9.140028 -4.003400 0.000000 -46.079899
-8.979629 17.030023 -1.580890 20.268934 83.071604 20.268999 -10.132773 2.238275 2.352466 -15.896818 5.074808 -17.874288 -2.290182 0.431837 22.948299 1.175239 5.895493 -9.736298 -0.348400 0.000000 -16.709400 11.176542 -3.016592 -1.786624 -1.698833 -17.414880 -9.999069 -1.112973 -3.696915 56.111367 -2.634896 -15.169929 5.848287 -3.410800 -0.000001 -41.467900
